<mxfile host="app.diagrams.net" modified="2023-06-29T07:55:58.778Z" agent="Mozilla/5.0 (Linux; Android 11; SM-A305F) AppleWebKit/537.36 (KHTML, like Gecko) Chrome/105.0.0.0 Mobile Safari/537.36" etag="LaZGBtrwcFpXDU2NjGmI" version="21.5.2" type="github">
  <diagram name="Page-1" id="orqfyebBDgiy5mfQhTiV">
    <mxGraphModel dx="378" dy="666" grid="1" gridSize="10" guides="1" tooltips="1" connect="1" arrows="1" fold="1" page="1" pageScale="1" pageWidth="850" pageHeight="1100" math="0" shadow="0">
      <root>
        <mxCell id="0" />
        <mxCell id="1" parent="0" />
        <mxCell id="I3L2gGV_M_gJtbSRU9ch-5" value="" style="shape=cylinder3;whiteSpace=wrap;html=1;boundedLbl=1;backgroundOutline=1;size=15;" parent="1" vertex="1">
          <mxGeometry x="230" y="190" width="150" height="170" as="geometry" />
        </mxCell>
        <mxCell id="I3L2gGV_M_gJtbSRU9ch-8" value="&lt;font style=&quot;font-size: 25px;&quot;&gt;&lt;b&gt;SCM&lt;/b&gt;&lt;/font&gt;" style="text;html=1;strokeColor=none;fillColor=none;align=center;verticalAlign=middle;whiteSpace=wrap;rounded=0;" parent="1" vertex="1">
          <mxGeometry x="255" y="230" width="100" height="30" as="geometry" />
        </mxCell>
        <mxCell id="akNGeROiG3Rp4HbKhUD0-1" value="Actor" style="shape=umlActor;verticalLabelPosition=bottom;verticalAlign=top;html=1;outlineConnect=0;" parent="1" vertex="1">
          <mxGeometry x="60" y="390" width="30" height="60" as="geometry" />
        </mxCell>
        <mxCell id="akNGeROiG3Rp4HbKhUD0-2" value="Actor" style="shape=umlActor;verticalLabelPosition=bottom;verticalAlign=top;html=1;outlineConnect=0;" parent="1" vertex="1">
          <mxGeometry x="110" y="590" width="30" height="60" as="geometry" />
        </mxCell>
        <mxCell id="akNGeROiG3Rp4HbKhUD0-5" value="" style="endArrow=none;html=1;rounded=0;entryX=0.5;entryY=0.5;entryDx=0;entryDy=0;entryPerimeter=0;exitX=0;exitY=0.648;exitDx=0;exitDy=0;exitPerimeter=0;" parent="1" source="I3L2gGV_M_gJtbSRU9ch-5" target="akNGeROiG3Rp4HbKhUD0-1" edge="1">
          <mxGeometry width="50" height="50" relative="1" as="geometry">
            <mxPoint x="400" y="520" as="sourcePoint" />
            <mxPoint x="450" y="470" as="targetPoint" />
          </mxGeometry>
        </mxCell>
        <mxCell id="akNGeROiG3Rp4HbKhUD0-6" value="" style="endArrow=none;html=1;rounded=0;exitX=0.68;exitY=0.223;exitDx=0;exitDy=0;exitPerimeter=0;entryX=0;entryY=1;entryDx=0;entryDy=-15;entryPerimeter=0;" parent="1" source="akNGeROiG3Rp4HbKhUD0-2" target="I3L2gGV_M_gJtbSRU9ch-5" edge="1">
          <mxGeometry width="50" height="50" relative="1" as="geometry">
            <mxPoint x="400" y="520" as="sourcePoint" />
            <mxPoint x="210" y="390" as="targetPoint" />
          </mxGeometry>
        </mxCell>
        <mxCell id="akNGeROiG3Rp4HbKhUD0-7" value="&lt;font style=&quot;font-size: 22px;&quot;&gt;&lt;b&gt;Git/Github&lt;/b&gt;&lt;/font&gt;" style="text;html=1;strokeColor=none;fillColor=none;align=center;verticalAlign=middle;whiteSpace=wrap;rounded=0;" parent="1" vertex="1">
          <mxGeometry x="265" y="260" width="80" height="30" as="geometry" />
        </mxCell>
      </root>
    </mxGraphModel>
  </diagram>
</mxfile>
